HIERARCHY
ROOT Hips
{
	OFFSET 0.000000 97.167313 0.000000
	CHANNELS 6 Xposition Yposition Zposition Xrotation Yrotation Zrotation
	JOINT Spine
	{
		OFFSET 0.000000 13.784798 0.064400
		CHANNELS 3 Xrotation Yrotation Zrotation
		JOINT Spine1
		{
			OFFSET 0.000000 12.037903 0.404700
			CHANNELS 3 Xrotation Yrotation Zrotation
			JOINT Spine2
			{
				OFFSET 0.000000 17.795601 0.420200
				CHANNELS 3 Xrotation Yrotation Zrotation
				JOINT Neck
				{
					OFFSET 0.000000 39.131302 11.954600
					CHANNELS 3 Xrotation Yrotation Zrotation
					JOINT Head
					{
						OFFSET 0.000000 14.456192 15.627699
						CHANNELS 3 Xrotation Yrotation Zrotation
						JOINT HeadTop_End
						{
							OFFSET 0.000000 15.703506 7.603401
							CHANNELS 3 Xrotation Yrotation Zrotation
							End Site
							{
								OFFSET 0.000000 17.447403 0.000000
							}
						}
					}
				}
				JOINT LeftShoulder
				{
					OFFSET 17.399500 24.608795 1.168800
					CHANNELS 3 Xrotation Yrotation Zrotation
					JOINT LeftArm
					{
						OFFSET 18.980635 5.765305 1.818600
						CHANNELS 3 Xrotation Yrotation Zrotation
						JOINT LeftForeArm
						{
							OFFSET 49.290169 0.000000 0.000000
							CHANNELS 3 Xrotation Yrotation Zrotation
							JOINT LeftHand
							{
								OFFSET 31.562012 0.000000 0.000000
								CHANNELS 3 Xrotation Yrotation Zrotation
								JOINT LeftHandThumb1
								{
									OFFSET 6.133995 -4.388519 7.076070
									CHANNELS 3 Xrotation Yrotation Zrotation
									JOINT LeftHandThumb2
									{
										OFFSET 6.037666 -3.485840 3.485847
										CHANNELS 3 Xrotation Yrotation Zrotation
										JOINT LeftHandThumb3
										{
											OFFSET 6.496506 -3.750763 3.750761
											CHANNELS 3 Xrotation Yrotation Zrotation
											JOINT LeftHandThumb4
											{
												OFFSET 5.616882 -3.242905 3.242910
												CHANNELS 3 Xrotation Yrotation Zrotation
												End Site
												{
													OFFSET -1.254608 7.132141 0.375429
												}
											}
										}
									}
								}
								JOINT LeftHandPinky1
								{
									OFFSET 18.920792 -0.453171 -11.426712
									CHANNELS 3 Xrotation Yrotation Zrotation
									JOINT LeftHandPinky2
									{
										OFFSET 4.919586 0.000000 0.000000
										CHANNELS 3 Xrotation Yrotation Zrotation
										JOINT LeftHandPinky3
										{
											OFFSET 5.233047 0.000000 0.000000
											CHANNELS 3 Xrotation Yrotation Zrotation
											JOINT LeftHandPinky4
											{
												OFFSET 5.571716 0.000000 0.000000
												CHANNELS 3 Xrotation Yrotation Zrotation
												End Site
												{
													OFFSET -3.459808 4.342407 -0.466164
												}
											}
										}
									}
								}
								JOINT LeftHandRing1
								{
									OFFSET 22.726120 -0.094986 -6.500475
									CHANNELS 3 Xrotation Yrotation Zrotation
									JOINT LeftHandRing2
									{
										OFFSET 6.408615 0.000000 0.000000
										CHANNELS 3 Xrotation Yrotation Zrotation
										JOINT LeftHandRing3
										{
											OFFSET 6.150223 0.000000 0.000000
											CHANNELS 3 Xrotation Yrotation Zrotation
											JOINT LeftHandRing4
											{
												OFFSET 6.145386 0.000000 0.000000
												CHANNELS 3 Xrotation Yrotation Zrotation
												End Site
												{
													OFFSET -3.671402 4.923981 -0.202372
												}
											}
										}
									}
								}
								JOINT LeftHandMiddle1
								{
									OFFSET 23.373947 0.000000 0.000001
									CHANNELS 3 Xrotation Yrotation Zrotation
									JOINT LeftHandMiddle2
									{
										OFFSET 6.996567 0.000000 0.000000
										CHANNELS 3 Xrotation Yrotation Zrotation
										JOINT LeftHandMiddle3
										{
											OFFSET 7.015945 0.000000 0.000000
											CHANNELS 3 Xrotation Yrotation Zrotation
											JOINT LeftHandMiddle4
											{
												OFFSET 7.721573 0.000000 0.000000
												CHANNELS 3 Xrotation Yrotation Zrotation
												End Site
												{
													OFFSET -4.651108 6.158463 0.251582
												}
											}
										}
									}
								}
								JOINT LeftHandIndex1
								{
									OFFSET 21.310577 -0.490082 6.209344
									CHANNELS 3 Xrotation Yrotation Zrotation
									JOINT LeftHandIndex2
									{
										OFFSET 7.536453 0.000000 0.000000
										CHANNELS 3 Xrotation Yrotation Zrotation
										JOINT LeftHandIndex3
										{
											OFFSET 7.512344 0.000000 0.000000
											CHANNELS 3 Xrotation Yrotation Zrotation
											JOINT LeftHandIndex4
											{
												OFFSET 10.212402 0.000000 0.000001
												CHANNELS 3 Xrotation Yrotation Zrotation
												End Site
												{
													OFFSET -5.180801 8.690506 1.388433
												}
											}
										}
									}
								}
							}
						}
					}
				}
				JOINT RightShoulder
				{
					OFFSET -17.399500 24.608795 1.168800
					CHANNELS 3 Xrotation Yrotation Zrotation
					JOINT RightArm
					{
						OFFSET -18.980635 5.765305 1.818600
						CHANNELS 3 Xrotation Yrotation Zrotation
						JOINT RightForeArm
						{
							OFFSET -49.290169 0.000000 0.000000
							CHANNELS 3 Xrotation Yrotation Zrotation
							JOINT RightHand
							{
								OFFSET -31.562012 0.000000 0.000000
								CHANNELS 3 Xrotation Yrotation Zrotation
								JOINT RightHandThumb1
								{
									OFFSET -6.133995 -4.388519 7.076070
									CHANNELS 3 Xrotation Yrotation Zrotation
									JOINT RightHandThumb2
									{
										OFFSET -6.037666 -3.485840 3.485847
										CHANNELS 3 Xrotation Yrotation Zrotation
										JOINT RightHandThumb3
										{
											OFFSET -6.496506 -3.750763 3.750761
											CHANNELS 3 Xrotation Yrotation Zrotation
											JOINT RightHandThumb4
											{
												OFFSET -5.616882 -3.242905 3.242910
												CHANNELS 3 Xrotation Yrotation Zrotation
												End Site
												{
													OFFSET 1.254608 7.132141 0.375429
												}
											}
										}
									}
								}
								JOINT RightHandIndex1
								{
									OFFSET -21.310577 -0.490082 6.209344
									CHANNELS 3 Xrotation Yrotation Zrotation
									JOINT RightHandIndex2
									{
										OFFSET -7.536453 0.000000 0.000000
										CHANNELS 3 Xrotation Yrotation Zrotation
										JOINT RightHandIndex3
										{
											OFFSET -7.512344 0.000000 0.000000
											CHANNELS 3 Xrotation Yrotation Zrotation
											JOINT RightHandIndex4
											{
												OFFSET -10.212402 0.000000 0.000001
												CHANNELS 3 Xrotation Yrotation Zrotation
												End Site
												{
													OFFSET 5.180801 8.690506 1.388433
												}
											}
										}
									}
								}
								JOINT RightHandMiddle1
								{
									OFFSET -23.373947 0.000000 0.000001
									CHANNELS 3 Xrotation Yrotation Zrotation
									JOINT RightHandMiddle2
									{
										OFFSET -6.996567 0.000000 0.000000
										CHANNELS 3 Xrotation Yrotation Zrotation
										JOINT RightHandMiddle3
										{
											OFFSET -7.015945 0.000000 0.000000
											CHANNELS 3 Xrotation Yrotation Zrotation
											JOINT RightHandMiddle4
											{
												OFFSET -7.721573 0.000000 0.000000
												CHANNELS 3 Xrotation Yrotation Zrotation
												End Site
												{
													OFFSET 4.651108 6.158463 0.251582
												}
											}
										}
									}
								}
								JOINT RightHandRing1
								{
									OFFSET -22.726120 -0.094986 -6.500475
									CHANNELS 3 Xrotation Yrotation Zrotation
									JOINT RightHandRing2
									{
										OFFSET -6.408615 0.000000 0.000000
										CHANNELS 3 Xrotation Yrotation Zrotation
										JOINT RightHandRing3
										{
											OFFSET -6.150223 0.000000 0.000000
											CHANNELS 3 Xrotation Yrotation Zrotation
											JOINT RightHandRing4
											{
												OFFSET -6.145386 0.000000 0.000000
												CHANNELS 3 Xrotation Yrotation Zrotation
												End Site
												{
													OFFSET 3.671402 4.923981 -0.202372
												}
											}
										}
									}
								}
								JOINT RightHandPinky1
								{
									OFFSET -18.920792 -0.453171 -11.426712
									CHANNELS 3 Xrotation Yrotation Zrotation
									JOINT RightHandPinky2
									{
										OFFSET -4.919586 0.000000 0.000000
										CHANNELS 3 Xrotation Yrotation Zrotation
										JOINT RightHandPinky3
										{
											OFFSET -5.233047 0.000000 0.000000
											CHANNELS 3 Xrotation Yrotation Zrotation
											JOINT RightHandPinky4
											{
												OFFSET -5.571716 0.000000 0.000000
												CHANNELS 3 Xrotation Yrotation Zrotation
												End Site
												{
													OFFSET 3.459808 4.342407 -0.466164
												}
											}
										}
									}
								}
							}
						}
					}
				}
			}
		}
	}
	JOINT LeftUpLeg
	{
		OFFSET 19.899099 -7.885101 -3.429500
		CHANNELS 3 Xrotation Yrotation Zrotation
		JOINT LeftLeg
		{
			OFFSET 1.745560 -36.997807 10.304700
			CHANNELS 3 Xrotation Yrotation Zrotation
			JOINT LeftFoot
			{
				OFFSET -1.745558 -29.803308 -13.615400
				CHANNELS 3 Xrotation Yrotation Zrotation
				JOINT LeftToeBase
				{
					OFFSET 1.181900 -18.539904 15.226099
					CHANNELS 3 Xrotation Yrotation Zrotation
					JOINT LeftToe_End
					{
						OFFSET -0.863701 1.402801 16.534700
						CHANNELS 3 Xrotation Yrotation Zrotation
						End Site
						{
							OFFSET 0.000000 16.616566 0.000000
						}
					}
				}
			}
		}
	}
	JOINT RightUpLeg
	{
		OFFSET -19.899099 -7.885101 -3.429500
		CHANNELS 3 Xrotation Yrotation Zrotation
		JOINT RightLeg
		{
			OFFSET -1.745560 -36.997807 10.304700
			CHANNELS 3 Xrotation Yrotation Zrotation
			JOINT RightFoot
			{
				OFFSET 1.745558 -29.803308 -13.615400
				CHANNELS 3 Xrotation Yrotation Zrotation
				JOINT RightToeBase
				{
					OFFSET -1.181900 -18.539904 15.226099
					CHANNELS 3 Xrotation Yrotation Zrotation
					JOINT RightToe_End
					{
						OFFSET 0.863701 1.402801 16.534700
						CHANNELS 3 Xrotation Yrotation Zrotation
						End Site
						{
							OFFSET 0.000000 16.616566 0.000000
						}
					}
				}
			}
		}
	}
}
MOTION
Frames: 4
Frame Time: 0.033333
-2.037284 71.666367 0.198453 15.600307 -53.696024 12.208288 7.436683 3.690275 -3.546739 1.209180 1.420669 2.325058 0.209256 1.298849 1.049730 -1.852111 9.789333 -1.570081 -3.706610 23.673099 -4.987625 -0.000001 -0.000001 0.000000 -2.416901 -9.914487 -4.105225 -4.752083 -15.146718 -47.033902 -96.790454 -58.305056 -94.529654 0.023858 -0.258430 -3.567569 4.766483 -0.870673 -14.442461 15.732333 12.674832 8.828582 63.207056 -8.275019 4.266033 -0.000000 0.000001 -0.000001 -8.868670 8.263630 -85.753872 -0.047926 -0.066898 -74.105667 -0.018483 -0.051625 -48.548793 -0.000001 0.000003 -0.000000 -4.480794 3.914199 -90.412512 -1.097254 -0.675689 -62.310723 -0.104336 1.185555 -72.505873 -0.000000 0.000001 0.000003 -5.483668 2.419544 -86.651024 -0.068335 -4.897293 -76.605523 1.509521 0.538123 -67.243267 -0.000000 -0.000001 0.000004 -3.610992 -7.817634 -81.262661 0.005183 -4.388505 -67.459074 1.852073 0.687165 -69.585810 -0.000000 0.000001 -0.000001 -7.387814 -19.317450 2.804090 3.091090 2.303112 51.809273 -16.176707 73.883290 16.693618 -2.726917 27.654591 10.530110 24.918367 -21.323366 30.343030 9.041911 8.262103 -18.001793 -16.109845 -19.128886 -12.401644 0.000000 -0.000001 0.000004 -0.070712 -3.035201 61.424233 0.006465 4.395143 66.609180 1.919200 -0.429146 59.456674 -0.000001 -0.000001 -0.000001 -1.235403 -0.119462 68.274250 -0.077301 4.902838 84.501905 0.918972 -1.334258 32.710271 0.000002 0.000003 -0.000009 0.883175 -4.613474 79.192943 -0.717786 1.136500 73.255773 -0.065386 -1.198592 39.144371 0.000001 -0.000000 0.000000 -3.944582 0.100013 86.764774 -0.029808 0.060120 54.415164 -0.007553 0.030578 25.829839 -0.000000 -0.000000 0.000006 -70.917888 18.172092 47.546951 43.389183 -16.213631 3.503618 11.514423 0.395606 -16.160088 -2.510979 -3.747151 4.079934 0.000000 -0.000002 -0.000000 -26.567865 -19.875072 -46.672417 36.658520 7.574809 -1.328796 -12.783960 -10.435670 38.812144 -1.372639 0.607831 -0.978879 -0.000000 0.000000 -0.000000 
-2.040805 71.614441 0.198813 15.503348 -53.687052 12.093897 7.323489 3.571132 -3.298548 1.202662 1.312285 2.098796 0.277910 1.201223 0.928692 -1.792753 9.756141 -1.558436 -3.724678 23.578677 -4.920268 -0.000000 0.000001 -0.000000 -2.370760 -9.378767 -4.731027 -5.863103 -13.904260 -47.153792 -94.503781 -60.619151 -91.935275 -0.007835 -0.986222 -4.104065 4.766485 -0.870671 -14.442462 15.732335 12.674830 8.828582 63.207056 -8.275018 4.266034 0.000000 0.000001 0.000000 -8.868663 8.263630 -85.753865 -0.047925 -0.066895 -74.105667 -0.018484 -0.051627 -48.548793 -0.000000 0.000002 -0.000005 -4.480791 3.914199 -90.412519 -1.097253 -0.675688 -62.310723 -0.104334 1.185554 -72.505880 -0.000000 0.000002 0.000003 -5.483665 2.419545 -86.651024 -0.068333 -4.897295 -76.605517 1.509523 0.538121 -67.243267 0.000001 0.000000 0.000008 -3.610989 -7.817630 -81.262667 0.005185 -4.388508 -67.459074 1.852074 0.687164 -69.585803 -0.000000 0.000001 -0.000001 -6.364613 -17.468033 4.172834 2.514479 1.631998 51.203968 -11.749702 73.291488 12.246650 -2.218098 27.342941 8.793673 24.918366 -21.323361 30.343033 9.041919 8.262102 -18.001793 -16.109843 -19.128884 -12.401651 0.000002 -0.000001 -0.000001 -0.070716 -3.035194 61.424226 0.006462 4.395141 66.609173 1.919200 -0.429149 59.456674 -0.000001 0.000000 0.000001 -1.235405 -0.119458 68.274250 -0.077303 4.902841 84.501905 0.918972 -1.334263 32.710268 0.000004 0.000002 -0.000006 0.883176 -4.613471 79.192943 -0.717787 1.136499 73.255766 -0.065391 -1.198590 39.144371 -0.000000 0.000004 -0.000001 -3.944584 0.100017 86.764781 -0.029811 0.060119 54.415164 -0.007550 0.030580 25.829834 -0.000000 -0.000002 0.000002 -70.970604 18.090082 47.581072 43.519537 -16.267793 3.533003 11.492845 0.405470 -16.157340 -2.510982 -3.747149 4.079943 0.000000 -0.000000 -0.000000 -26.529505 -19.899070 -46.698068 36.746466 7.601497 -1.308960 -12.842948 -10.428212 38.810935 -1.372627 0.607798 -0.978875 -0.000000 -0.000000 -0.000000 
-2.047866 71.556747 0.198134 15.488584 -53.655825 12.045962 7.196076 3.451682 -3.051444 1.188465 1.195253 1.870247 0.345236 1.094708 0.803232 -1.726501 9.720410 -1.566304 -3.707873 23.457798 -4.853742 -0.000001 -0.000001 0.000000 -2.307999 -8.810716 -5.396940 -7.010935 -12.574513 -47.221196 -91.616777 -62.982103 -88.806721 -0.036043 -1.695599 -4.568059 4.766482 -0.870676 -14.442466 15.732335 12.674825 8.828581 63.207062 -8.275020 4.266032 0.000000 0.000003 0.000000 -8.868665 8.263627 -85.753872 -0.047922 -0.066895 -74.105667 -0.018484 -0.051627 -48.548800 -0.000001 -0.000001 -0.000004 -4.480792 3.914198 -90.412512 -1.097253 -0.675688 -62.310730 -0.104335 1.185555 -72.505880 -0.000002 0.000000 0.000003 -5.483666 2.419542 -86.651017 -0.068335 -4.897290 -76.605523 1.509521 0.538122 -67.243267 0.000000 0.000000 0.000006 -3.610987 -7.817633 -81.262661 0.005184 -4.388505 -67.459067 1.852073 0.687162 -69.585810 -0.000001 -0.000000 0.000001 -5.387695 -15.425576 5.433759 1.901406 0.909052 50.565851 -7.578416 72.572966 8.057197 -1.680804 26.994923 6.896240 24.918369 -21.323359 30.343040 9.041914 8.262102 -18.001792 -16.109850 -19.128884 -12.401655 0.000005 -0.000002 0.000002 -0.070712 -3.035195 61.424233 0.006465 4.395141 66.609180 1.919200 -0.429152 59.456674 -0.000001 -0.000003 0.000003 -1.235399 -0.119459 68.274250 -0.077304 4.902842 84.501905 0.918974 -1.334262 32.710264 -0.000000 0.000003 -0.000004 0.883180 -4.613472 79.192943 -0.717786 1.136499 73.255773 -0.065387 -1.198588 39.144371 -0.000000 0.000002 -0.000005 -3.944578 0.100014 86.764781 -0.029808 0.060120 54.415168 -0.007554 0.030581 25.829834 -0.000000 -0.000001 -0.000001 -71.087379 18.009617 47.612887 43.643365 -16.328792 3.552433 11.486082 0.414892 -16.140558 -2.510979 -3.747167 4.079949 0.000000 -0.000000 0.000000 -26.515667 -19.907317 -46.720072 36.834490 7.612668 -1.274795 -12.907628 -10.430459 38.819185 -1.372627 0.607828 -0.978867 -0.000000 -0.000000 -0.000000 
-2.064524 71.512489 0.201880 15.450810 -53.641133 11.945339 7.046895 3.330156 -2.819637 1.152614 1.076418 1.653431 0.397524 0.984266 0.670013 -1.655561 9.665048 -1.577911 -3.611149 23.271204 -4.773643 0.000000 -0.000001 -0.000001 -2.219770 -8.183250 -6.071611 -8.193537 -11.209412 -47.292179 -87.698160 -65.415078 -84.697645 -0.060945 -2.421320 -5.061840 4.766481 -0.870676 -14.442464 15.732332 12.674828 8.828581 63.207056 -8.275020 4.266031 0.000001 -0.000000 -0.000001 -8.868665 8.263627 -85.753872 -0.047921 -0.066897 -74.105667 -0.018482 -0.051628 -48.548787 0.000001 0.000003 -0.000000 -4.480794 3.914197 -90.412512 -1.097256 -0.675688 -62.310730 -0.104335 1.185554 -72.505880 -0.000001 0.000000 0.000003 -5.483666 2.419541 -86.651024 -0.068333 -4.897292 -76.605517 1.509522 0.538123 -67.243267 0.000000 -0.000000 0.000004 -3.610991 -7.817630 -81.262674 0.005182 -4.388511 -67.459074 1.852075 0.687162 -69.585803 0.000000 0.000003 0.000001 -4.453531 -13.217392 6.589288 1.274997 0.148249 49.865900 -3.804029 71.725804 4.267832 -1.128325 26.602057 4.856718 24.918367 -21.323361 30.343037 9.041916 8.262102 -18.001795 -16.109848 -19.128889 -12.401649 -0.000000 -0.000001 0.000002 -0.070712 -3.035199 61.424233 0.006463 4.395136 66.609180 1.919198 -0.429146 59.456674 -0.000002 0.000000 -0.000003 -1.235400 -0.119458 68.274250 -0.077301 4.902846 84.501905 0.918973 -1.334259 32.710264 0.000001 0.000003 -0.000004 0.883181 -4.613476 79.192943 -0.717787 1.136496 73.255766 -0.065388 -1.198591 39.144371 -0.000001 0.000002 -0.000005 -3.944578 0.100015 86.764781 -0.029809 0.060119 54.415164 -0.007554 0.030583 25.829836 0.000001 -0.000000 0.000002 -71.202079 17.912110 47.691905 43.766346 -16.410810 3.564276 11.475529 0.425235 -16.120860 -2.510996 -3.747154 4.079951 0.000000 0.000000 0.000000 -26.461541 -19.964500 -46.691726 36.864174 7.643253 -1.235190 -12.964610 -10.433403 38.808274 -1.373052 0.608036 -0.983464 -0.000000 0.000000 -0.000000 
